<mxfile host="app.diagrams.net" modified="2021-10-10T09:17:48.706Z" agent="5.0 (Windows NT 10.0; Win64; x64) AppleWebKit/537.36 (KHTML, like Gecko) Chrome/94.0.4606.71 Safari/537.36" etag="qiTSNIDA77PndETsh9qT" version="15.5.0" type="github">
  <diagram id="BMcOZXu0J_Z7J6PI3jPu" name="第 1 页">
    <mxGraphModel dx="618" dy="928" grid="1" gridSize="10" guides="1" tooltips="1" connect="1" arrows="1" fold="1" page="1" pageScale="1" pageWidth="827" pageHeight="1169" math="0" shadow="0">
      <root>
        <mxCell id="0" />
        <mxCell id="1" parent="0" />
        <mxCell id="yhKQ0rrUJ12kzrNKSGbI-27" value="" style="edgeStyle=orthogonalEdgeStyle;rounded=0;orthogonalLoop=1;jettySize=auto;html=1;fontSize=18;entryX=0.5;entryY=0;entryDx=0;entryDy=0;" edge="1" parent="1" source="yhKQ0rrUJ12kzrNKSGbI-23" target="yhKQ0rrUJ12kzrNKSGbI-21">
          <mxGeometry relative="1" as="geometry" />
        </mxCell>
        <mxCell id="yhKQ0rrUJ12kzrNKSGbI-24" value="" style="group" vertex="1" connectable="0" parent="1">
          <mxGeometry x="120" y="280" width="280" height="520" as="geometry" />
        </mxCell>
        <mxCell id="yhKQ0rrUJ12kzrNKSGbI-21" value="" style="rounded=0;whiteSpace=wrap;html=1;fontSize=18;fillColor=#dae8fc;strokeColor=#6c8ebf;" vertex="1" parent="yhKQ0rrUJ12kzrNKSGbI-24">
          <mxGeometry width="280" height="520" as="geometry" />
        </mxCell>
        <mxCell id="yhKQ0rrUJ12kzrNKSGbI-2" value="&lt;font style=&quot;font-size: 18px&quot;&gt;Streaming&lt;/font&gt;" style="rounded=0;whiteSpace=wrap;html=1;" vertex="1" parent="yhKQ0rrUJ12kzrNKSGbI-24">
          <mxGeometry x="77.24137931034483" y="50" width="115.86206896551725" height="40" as="geometry" />
        </mxCell>
        <mxCell id="yhKQ0rrUJ12kzrNKSGbI-3" value="&lt;span style=&quot;font-size: 18px&quot;&gt;Boundary&lt;/span&gt;" style="rounded=0;whiteSpace=wrap;html=1;" vertex="1" parent="yhKQ0rrUJ12kzrNKSGbI-24">
          <mxGeometry x="77.24137931034483" y="130" width="115.86206896551725" height="40" as="geometry" />
        </mxCell>
        <mxCell id="yhKQ0rrUJ12kzrNKSGbI-8" value="" style="edgeStyle=orthogonalEdgeStyle;rounded=0;orthogonalLoop=1;jettySize=auto;html=1;fontSize=18;" edge="1" parent="yhKQ0rrUJ12kzrNKSGbI-24" source="yhKQ0rrUJ12kzrNKSGbI-2" target="yhKQ0rrUJ12kzrNKSGbI-3">
          <mxGeometry relative="1" as="geometry" />
        </mxCell>
        <mxCell id="yhKQ0rrUJ12kzrNKSGbI-4" value="&lt;span style=&quot;font-size: 18px&quot;&gt;Macrop&lt;/span&gt;" style="rounded=0;whiteSpace=wrap;html=1;" vertex="1" parent="yhKQ0rrUJ12kzrNKSGbI-24">
          <mxGeometry x="77.24137931034483" y="210" width="115.86206896551725" height="40" as="geometry" />
        </mxCell>
        <mxCell id="yhKQ0rrUJ12kzrNKSGbI-9" value="" style="edgeStyle=orthogonalEdgeStyle;rounded=0;orthogonalLoop=1;jettySize=auto;html=1;fontSize=18;" edge="1" parent="yhKQ0rrUJ12kzrNKSGbI-24" source="yhKQ0rrUJ12kzrNKSGbI-3" target="yhKQ0rrUJ12kzrNKSGbI-4">
          <mxGeometry relative="1" as="geometry" />
        </mxCell>
        <mxCell id="yhKQ0rrUJ12kzrNKSGbI-5" value="&lt;span style=&quot;font-size: 18px&quot;&gt;Forces&lt;/span&gt;" style="rounded=0;whiteSpace=wrap;html=1;" vertex="1" parent="yhKQ0rrUJ12kzrNKSGbI-24">
          <mxGeometry x="77.24137931034483" y="290" width="115.86206896551725" height="40" as="geometry" />
        </mxCell>
        <mxCell id="yhKQ0rrUJ12kzrNKSGbI-10" value="" style="edgeStyle=orthogonalEdgeStyle;rounded=0;orthogonalLoop=1;jettySize=auto;html=1;fontSize=18;" edge="1" parent="yhKQ0rrUJ12kzrNKSGbI-24" source="yhKQ0rrUJ12kzrNKSGbI-4" target="yhKQ0rrUJ12kzrNKSGbI-5">
          <mxGeometry relative="1" as="geometry" />
        </mxCell>
        <mxCell id="yhKQ0rrUJ12kzrNKSGbI-6" value="&lt;span style=&quot;font-size: 18px&quot;&gt;Collsion&lt;/span&gt;" style="rounded=0;whiteSpace=wrap;html=1;" vertex="1" parent="yhKQ0rrUJ12kzrNKSGbI-24">
          <mxGeometry x="77.24137931034483" y="370" width="115.86206896551725" height="40" as="geometry" />
        </mxCell>
        <mxCell id="yhKQ0rrUJ12kzrNKSGbI-11" value="" style="edgeStyle=orthogonalEdgeStyle;rounded=0;orthogonalLoop=1;jettySize=auto;html=1;fontSize=18;" edge="1" parent="yhKQ0rrUJ12kzrNKSGbI-24" source="yhKQ0rrUJ12kzrNKSGbI-5" target="yhKQ0rrUJ12kzrNKSGbI-6">
          <mxGeometry relative="1" as="geometry" />
        </mxCell>
        <mxCell id="yhKQ0rrUJ12kzrNKSGbI-16" style="edgeStyle=orthogonalEdgeStyle;rounded=0;orthogonalLoop=1;jettySize=auto;html=1;fontSize=18;entryX=1;entryY=0.5;entryDx=0;entryDy=0;exitX=1;exitY=0.5;exitDx=0;exitDy=0;" edge="1" parent="yhKQ0rrUJ12kzrNKSGbI-24" source="yhKQ0rrUJ12kzrNKSGbI-7" target="yhKQ0rrUJ12kzrNKSGbI-2">
          <mxGeometry relative="1" as="geometry">
            <mxPoint x="280" y="-40" as="targetPoint" />
            <Array as="points">
              <mxPoint x="220" y="470" />
              <mxPoint x="220" y="70" />
            </Array>
          </mxGeometry>
        </mxCell>
        <mxCell id="yhKQ0rrUJ12kzrNKSGbI-7" value="&lt;span style=&quot;font-size: 18px&quot;&gt;Output&lt;/span&gt;" style="rounded=0;whiteSpace=wrap;html=1;" vertex="1" parent="yhKQ0rrUJ12kzrNKSGbI-24">
          <mxGeometry x="77.24137931034483" y="450" width="115.86206896551725" height="40" as="geometry" />
        </mxCell>
        <mxCell id="yhKQ0rrUJ12kzrNKSGbI-12" value="" style="edgeStyle=orthogonalEdgeStyle;rounded=0;orthogonalLoop=1;jettySize=auto;html=1;fontSize=18;" edge="1" parent="yhKQ0rrUJ12kzrNKSGbI-24" source="yhKQ0rrUJ12kzrNKSGbI-6" target="yhKQ0rrUJ12kzrNKSGbI-7">
          <mxGeometry relative="1" as="geometry" />
        </mxCell>
        <mxCell id="yhKQ0rrUJ12kzrNKSGbI-28" value="" style="group" vertex="1" connectable="0" parent="1">
          <mxGeometry x="120" y="90" width="280" height="150" as="geometry" />
        </mxCell>
        <mxCell id="yhKQ0rrUJ12kzrNKSGbI-23" value="" style="rounded=0;whiteSpace=wrap;html=1;fontSize=18;fillColor=#d5e8d4;strokeColor=#82b366;" vertex="1" parent="yhKQ0rrUJ12kzrNKSGbI-28">
          <mxGeometry width="280" height="150" as="geometry" />
        </mxCell>
        <mxCell id="yhKQ0rrUJ12kzrNKSGbI-30" value="" style="edgeStyle=orthogonalEdgeStyle;rounded=0;orthogonalLoop=1;jettySize=auto;html=1;fontSize=18;" edge="1" parent="yhKQ0rrUJ12kzrNKSGbI-28" source="yhKQ0rrUJ12kzrNKSGbI-19" target="yhKQ0rrUJ12kzrNKSGbI-22">
          <mxGeometry relative="1" as="geometry" />
        </mxCell>
        <mxCell id="yhKQ0rrUJ12kzrNKSGbI-19" value="&lt;font style=&quot;font-size: 18px&quot;&gt;Constant&lt;/font&gt;" style="rounded=0;whiteSpace=wrap;html=1;" vertex="1" parent="yhKQ0rrUJ12kzrNKSGbI-28">
          <mxGeometry x="80" y="20" width="120" height="40" as="geometry" />
        </mxCell>
        <mxCell id="yhKQ0rrUJ12kzrNKSGbI-22" value="&lt;font style=&quot;font-size: 18px&quot;&gt;Initialization&lt;/font&gt;" style="rounded=0;whiteSpace=wrap;html=1;" vertex="1" parent="yhKQ0rrUJ12kzrNKSGbI-28">
          <mxGeometry x="80" y="90" width="120" height="40" as="geometry" />
        </mxCell>
        <mxCell id="yhKQ0rrUJ12kzrNKSGbI-25" style="edgeStyle=orthogonalEdgeStyle;rounded=0;orthogonalLoop=1;jettySize=auto;html=1;exitX=0.5;exitY=1;exitDx=0;exitDy=0;fontSize=18;" edge="1" parent="yhKQ0rrUJ12kzrNKSGbI-28" source="yhKQ0rrUJ12kzrNKSGbI-23" target="yhKQ0rrUJ12kzrNKSGbI-23">
          <mxGeometry relative="1" as="geometry" />
        </mxCell>
      </root>
    </mxGraphModel>
  </diagram>
</mxfile>
